<svg width="27" height="27" viewBox="0 0 27 27" fill="none" xmlns="http://www.w3.org/2000/svg">
<g clip-path="url(#clip0_421_2191)">
<path d="M0 26.9999C0.0751701 26.7228 0.147567 26.4457 0.219953 26.1908L1.8904 20.1668C1.90031 20.1366 1.90368 20.1048 1.90032 20.0732C1.89697 20.0417 1.88693 20.0113 1.87089 19.9839C0.976888 18.4287 0.408648 16.7094 0.200446 14.9297C-0.0971285 12.3628 0.357456 9.76507 1.50939 7.44946C2.66133 5.13386 4.46148 3.19919 6.69294 1.87858C8.27807 0.932614 10.0451 0.328447 11.8797 0.105178C14.6664 -0.247337 17.494 0.279086 19.9643 1.61031C22.4346 2.94153 24.4231 5.01047 25.6497 7.52574C26.6289 9.51365 27.0894 11.7149 26.9888 13.9266C26.8676 16.859 25.7819 19.6706 23.8986 21.929C22.0153 24.1874 19.4388 25.7675 16.5653 26.4263C13.4047 27.1666 10.0811 26.7269 7.22467 25.1905C7.19306 25.1719 7.15783 25.1603 7.12132 25.1565C7.08482 25.1527 7.04788 25.1567 7.01308 25.1683L0.0946492 26.9749L0 26.9999ZM3.22674 23.8188L3.33253 23.7967C4.65219 23.4531 5.97183 23.1076 7.29149 22.7603C7.34186 22.7407 7.39646 22.7342 7.45006 22.7415C7.50366 22.7488 7.55451 22.7696 7.59776 22.8019C7.6675 22.8496 7.73998 22.8931 7.81489 22.9321C9.08672 23.7016 10.5021 24.2063 11.9755 24.4159C13.4489 24.6254 14.9496 24.5354 16.3871 24.1514C19.1972 23.4179 21.6108 21.6257 23.1174 19.1535C24.6241 16.6813 25.1059 13.7228 24.4609 10.9035C23.7998 8.03248 22.0217 5.53955 19.5166 3.97136C17.0115 2.40318 13.9837 1.88774 11.0973 2.53806C9.57767 2.8809 8.14661 3.53557 6.89563 4.46021C5.64464 5.38485 4.60127 6.55911 3.83222 7.90793C3.06317 9.25674 2.58534 10.7504 2.42931 12.2935C2.27328 13.8366 2.44248 15.3951 2.92607 16.8693C3.25781 17.8491 3.71838 18.7808 4.29581 19.6403C4.31288 19.6646 4.32402 19.6925 4.32837 19.7218C4.33272 19.7512 4.33018 19.7811 4.3209 19.8093C4.023 20.8817 3.73066 21.954 3.43554 23.0291C3.37429 23.2868 3.30191 23.5445 3.22674 23.8188Z" fill="white"/>
<path d="M9.17363 7.2153H9.58292C9.65952 7.21175 9.73574 7.2277 9.80443 7.26164C9.87312 7.29558 9.93198 7.34639 9.97545 7.40927C10.0659 7.53556 10.1425 7.6712 10.2038 7.81382C10.5323 8.58691 10.8358 9.37386 11.1838 10.1386C11.2645 10.2874 11.303 10.4553 11.2952 10.6242C11.2873 10.7931 11.2334 10.9567 11.1392 11.0974C10.9345 11.4121 10.6995 11.7063 10.4376 11.9758C10.1314 12.3027 10.1091 12.4163 10.343 12.807C11.1285 14.1518 12.252 15.27 13.6031 16.0518C14.0402 16.2984 14.5024 16.5007 14.959 16.7085C15.0612 16.7681 15.1828 16.7855 15.2978 16.757C15.4128 16.7285 15.512 16.6564 15.5742 16.5561C15.9362 16.1183 16.2953 15.6722 16.6489 15.2261C16.7024 15.1323 16.7887 15.0613 16.8913 15.0265C16.994 14.9918 17.1058 14.9958 17.2057 15.0377C17.4308 15.1172 17.6512 15.2097 17.8656 15.3147C18.5755 15.6528 19.2743 16.0075 19.9898 16.3344C20.1234 16.3805 20.2361 16.4725 20.3076 16.5939C20.3791 16.7153 20.4046 16.8582 20.3795 16.9967C20.3497 17.4105 20.2616 17.8181 20.1179 18.2076C20.0277 18.4206 19.8896 18.6102 19.7141 18.7618C19.1913 19.2722 18.529 19.6182 17.8098 19.7566C17.0387 19.8827 16.248 19.8102 15.513 19.546C14.5513 19.2458 13.6231 18.8484 12.7428 18.36C11.5741 17.6544 10.5175 16.7793 9.60796 15.7636C8.82366 14.912 8.1278 13.9836 7.53102 12.9927C7.15563 12.3914 6.90129 11.7232 6.78212 11.0253C6.67718 10.4712 6.70035 9.90048 6.84988 9.35654C6.99941 8.81261 7.27138 8.30968 7.64517 7.88587C7.73705 7.78057 7.83449 7.6725 7.92358 7.57275C8.04031 7.44805 8.18236 7.34947 8.34028 7.28355C8.49819 7.21762 8.66837 7.18586 8.83955 7.19036H9.16252L9.17363 7.2153Z" fill="white"/>
</g>
<defs>
<clipPath id="clip0_421_2191">
<rect width="27" height="27" fill="white"/>
</clipPath>
</defs>
</svg>
